<svg height="460" viewBox="0 0 975 460" width="975" xmlns="http://www.w3.org/2000/svg" xmlns:xlink="http://www.w3.org/1999/xlink"><linearGradient id="a" x1="50%" x2="50%" y1="95.956234%" y2="0%"><stop offset="0" stop-color="#fff"/><stop offset="1" stop-color="#fef7e0"/></linearGradient><linearGradient id="b"><stop offset="0" stop-color="#fff" stop-opacity="0"/><stop offset="1" stop-color="#fff"/></linearGradient><linearGradient id="c" x1="100%" x2="0%" xlink:href="#b" y1="50%" y2="50%"/><linearGradient id="d" x1="0%" x2="100%" xlink:href="#b" y1="50%" y2="50%"/><g fill="none" fill-rule="evenodd" transform="translate(0 10)"><path d="m0 190.064795h975v249.935205h-975z" fill="url(#a)"/><g transform="translate(727.923977 256.587473)"><path d="m8.66581859.95032397c3.65796221 0 7.29495731 3.80817855 6.40224031 7.12747762-.8927169 3.31929911-5.15832348 6.39518291-9.49449257 4.78675711s-3.79666804-7.2192706-3.43740389-8.59698461 2.8716939-3.31725012 6.52965615-3.31725012z" fill="#faf2da"/><path d="m4.40311258 0c2.45762137 0 5.17490813 1.13063428 5.09822493 3.97953706-.07668319 2.84890279-2.81387582 3.62305473-5.09822493 3.62305473s-4.38181067-1.31922112-4.40294383-3.62305473c-.02113316-2.3038336 1.94532245-3.97953706 4.40294383-3.97953706z" fill="#f0cf92"/></g><path d="m661.403509 191.490281c0-21.782273-14.80573-36.587473-36.586258-36.587473-21.780527 0-38.486842 14.806221-38.486842 36.587473" fill="#ffc200"/><path d="m667.058603 188.639957c-.989423-19.849689-17.395491-35.638445-37.48989-35.638445-20.09403 0-36.500413 15.789346-37.489886 35.638445z" stroke="#000" stroke-width="3.8"/><rect fill="#e6dcbd" height="4.75162" rx="2.37581" width="975" y="188.164147"/><path d="m358.170075 234.943055-67.281527 29.631931c-6.399925-10.831588-14.567435-17.874705-24.502531-21.129352-9.935096-3.254646-22.221268-1.884992-36.858517 4.108961-7.098704 3.886764-9.414281 9.16101-6.946732 15.822737 2.467549 6.661728 7.641025 9.10305 15.520428 7.323967 7.4314-2.995352 13.576548-4.130807 18.435447-3.406363 4.858898.724443 8.596126 3.333322 11.211683 7.826637l-46.318524 18.930163c-8.735536 4.611633-11.756861 10.531038-9.063975 17.758214 2.692885 7.227176 8.905626 9.095059 18.638222 5.603648l103.840164-44.710181c2.952207 7.125782 3.633521 13.361895 2.04394 18.70834-1.58958 5.346445-6.86492 11.069097-15.826019 17.167956-6.606234 6.761951-7.819397 12.917459-3.63949 18.466524 4.179908 5.549065 9.987097 5.950821 17.421569 1.20527 12.771044-8.561298 20.931891-18.011147 24.48254-28.349547s2.816658-22.513276-2.201972-36.524628l14.202862-6.719427c12.157018 4.479618 22.690561 5.913375 31.600631 4.301271 8.910069-1.612104 15.070132-4.648762 18.48019-9.109974 7.055653.870373 12.469032-.08007 16.240139-2.851329 3.771106-2.77126 4.653926-6.447682 2.648459-11.029267l-11.821915 1.790768h-12.147498l-11.387803 3.68626-16.165883 2.102082h-12.689185l-11.239291-2.102082z" fill="#faf2da"/><path d="m385.332201 192.419315v-74.254305c-10.881785 1.351062-20.462944-1.935182-28.743477-9.858729-8.280533-7.923548-12.399378-17.7466818-12.356534-29.4694024v-17.1200308c.834193-8.4341625 5.35406-12.6512437 13.559602-12.6512437 8.205541 0 12.576846 4.2170812 13.113916 12.6512437v20.0920241c-.101421 3.6396013 1.225046 6.4723683 3.979401 8.4983011 2.754354 2.0259327 6.236718 2.7302442 10.447092 2.1129344v-78.3070951c.176836-9.28602918 4.733241-13.92904378 13.669217-13.92904378 8.935975 0 13.517192 4.6430146 13.74365 13.92904378v131.9503657c9.849517-.857335 16.61451-3.126298 20.294981-6.806891 3.68047-3.680592 5.55465-10.554092 5.622541-20.620499.074707-10.424957 4.392862-15.637436 12.954465-15.637436 8.561602 0 12.690866 5.292459 12.387791 15.877377.74345 16.646751-3.196537 29.308957-11.81996 37.986619s-21.770029 13.209519-39.439818 13.595569v31.568914c-2.15814-2.365568-5.704929-4.755438-10.640368-7.169609-4.935438-2.414172-10.526272-3.226874-16.772499-2.438107z" fill="#098f37"/><path d="m390.083663 199.071583v-79.956249c-10.881785 1.351062-20.462945-1.935182-28.743477-9.858729-8.280533-7.923548-12.399378-17.7466818-12.356534-29.4694025v-17.1200307c.834193-8.4341625 5.35406-12.6512438 13.559602-12.6512438 8.205541 0 12.576846 4.2170813 13.113916 12.6512438v20.0920241c-.101421 3.6396013 1.225046 6.4723683 3.979401 8.498301 2.754354 2.0259328 6.236718 2.7302443 10.447092 2.1129345v-78.3070951c.176836-9.28602921 4.733241-13.92904381 13.669217-13.92904381 8.935975 0 13.517192 4.6430146 13.74365 13.92904381v131.9503657c9.849517-.857335 16.61451-3.126298 20.294981-6.806891 3.68047-3.680592 5.55465-10.554092 5.622541-20.620499.074707-10.424957 4.392862-15.637436 12.954465-15.637436 8.561602 0 12.690866 5.292459 12.387791 15.877377.74345 16.646751-3.196537 29.308957-11.81996 37.986619s-21.770029 13.209519-39.439818 13.595569v41.072154" stroke="#000" stroke-linejoin="round" stroke-width="5.7"/><path d="m414.649534 211.811678c16.701129-1.488455 26.51534 2.984459 29.442632 13.418743.515044 10.292391-9.001029 14.75695-28.54822 13.393679l6.754319-5.114825 1.392409-7.384431-.971939-6.305246-3.09841-4.977455z" fill="#ac966e"/><path d="m417.500411 212.762002c17.968186-1.488455 28.415925 2.984459 31.343217 13.418743.515044 10.292391-10.589702 14.658647-33.314241 13.098769" stroke="#000" stroke-width="3.8"/><path d="m361.436087 216.612022c4.526877-5.217698 7.270785-9.834725 9.515839-11.822074 5.02638-4.449412 8.155188-5.744421 14.194379-5.744421 6.039192 0 12.488802 2.675289 20.760288 8.587422 9.567023 6.838132 12.397766 9.952424 13.082038 17.481232.684273 7.528808-1.859186 9.283279-10.138844 14.901668-4.511594 3.061466-10.915476 4.780989-19.211646 5.15857-19.400233 1.65882-31.23623-.765844-35.507991-7.273991-3.599589-5.484075-3.884964-9.956355-.856123-13.41684 3.954811-3.534292 6.675497-6.158148 8.16206-7.871566z" fill="#d3b57e"/><path d="m398.933256 211.707589c-4.175502 6.152891-9.196963 9.565745-15.064384 10.238563-8.06858.925225-16.683041 1.771037-25.843383 2.537436 3.954811-3.534292 6.675497-6.158148 8.16206-7.871566 4.526877-5.217698 7.270785-9.834725 9.515839-11.822074 5.02638-4.449412 8.155188-5.744421 14.194379-5.744421 6.039192 0 12.488802 2.675289 20.760288 8.587422 9.567023 6.838132 12.397766 9.952424 13.082038 17.481232.684273 7.528808-1.859186 9.283279-10.138844 14.901668-4.511594 3.061466-10.915476 4.780989-19.211646 5.15857-19.400233 1.65882-31.23623-.765844-35.507991-7.273991-3.599589-5.484075-3.884964-9.956355-.856123-13.41684 8.964236-.737931 17.578697-1.583743 25.843383-2.537436 4.422529 1.083977 7.515518 4.799325 9.278966 11.146045" stroke="#000" stroke-linejoin="bevel" stroke-width="3.8"/><g fill="#faf2da"><path d="m252.588023 342.116631c6.5771 0 13.116501 6.737546 11.511375 12.610152s-9.274784 11.314555-17.071316 8.468878c-7.796532-2.845676-6.826497-12.772555-6.180531-15.210049.645965-2.437494 5.163371-5.868981 11.740472-5.868981z"/><path d="m753.359777 324.060475c5.531968 0 11.032227 5.666919 9.682164 10.60634-1.350064 4.939422-7.800978 9.516619-14.358604 7.123134s-5.741734-10.742937-5.198416-12.793101c.543318-2.050165 4.342888-4.936373 9.874856-4.936373z"/><path d="m725.478945 311.706263c3.816203 0 7.610532 3.909299 6.679197 7.316736-.931336 3.407437-5.381469 6.564995-9.905217 4.913861-4.523749-1.651135-3.960909-7.410966-3.586104-8.825263.374806-1.414296 2.995921-3.405334 6.812124-3.405334z"/><path d="m709.482208 263.239741c2.874113 0 5.731752 2.944226 5.030331 5.510484-.70142 2.566258-4.052968 4.944323-7.459958 3.700797s-2.983097-5.581452-2.700818-6.646608c.282279-1.065155 2.256331-2.564673 5.130445-2.564673z"/><path d="m296.121184 361.12311c3.396679 0 6.773889 3.47954 5.944938 6.51239-.828952 3.032851-4.789872 5.843292-8.816315 4.37367s-3.525477-6.596262-3.191875-7.855082 2.666573-3.030978 6.063252-3.030978z"/><path d="m264.761535 219.524838c3.396679 0 6.773889 3.47954 5.944937 6.51239-.828951 3.03285-4.789871 5.843291-8.816314 4.37367-4.026443-1.469622-3.525478-6.596262-3.191875-7.855082.333602-1.25882 2.666573-3.030978 6.063252-3.030978z"/></g><g transform="translate(305.994152 226.177106)"><path d="m7.96473788 4.38075558c3.93320702 0 7.84386912 4.0291564 6.88397932 7.54106502-.9598898 3.5119086-5.5464635 6.7662773-10.20890924 5.0645191-4.66244574-1.7017582-4.08234974-7.63818448-3.69605262-9.09584334.38629711-1.45765887 3.08777557-3.50974078 7.02098254-3.50974078z" fill="#faf2da"/><path d="m12.7295025.16343024c3.5293298 0 7.4315587 1.6584013 7.3214359 5.83713899-.1101229 4.17873767-4.0409381 5.31425487-7.3214359 5.31425487-3.28049776 0-6.29261089-1.93501834-6.32295971-5.31425487-.03034882-3.37923652 2.7936299-5.83713899 6.32295971-5.83713899z" fill="#f0cf92"/></g><g transform="translate(480.847953 202.419006)"><path d="m5.31554084 2.85097192c2.87411319 0 5.73175216 2.92936811 5.03033166 5.48267509-.70142043 2.55330699-4.05296843 4.91937139-7.45995843 3.68212079-3.40699001-1.2372506-2.98309633-5.55328501-2.70081735-6.61306502.28227897-1.05978 2.25633092-2.55173086 5.13044412-2.55173086z" fill="#faf2da"/><path d="m8.20428217 0c2.45762133 0 5.17490813 1.27196356 5.09822493 4.4769792-.0766832 3.20501563-2.8138758 4.07593657-5.09822493 4.07593657-2.28434911 0-4.38181066-1.48412376-4.40294383-4.07593657-.02113316-2.59181281 1.94532246-4.4769792 4.40294383-4.4769792z" fill="#f0cf92"/></g><g transform="translate(324.049708 206.220302)"><path d="m6.76523379.95032397c3.65796221 0 7.29495731 3.80817855 6.40224041 7.12747762-.892717 3.31929911-5.15832357 6.39518291-9.49449266 4.78675711-4.33616909-1.6084258-3.79666805-7.2192706-3.4374039-8.59698461s2.87169391-3.31725012 6.52965615-3.31725012z" fill="#faf2da"/><path d="m9.15457457 0c2.45762133 0 5.17490813 1.13063428 5.09822493 3.97953706-.0766832 2.84890279-2.8138758 3.62305473-5.09822493 3.62305473-2.28434911 0-4.38181067-1.31922112-4.40294383-3.62305473-.02113317-2.3038336 1.94532245-3.97953706 4.40294383-3.97953706z" fill="#ac966e"/></g><g transform="translate(218.567251 154.902808)"><path d="m25.6388014 64.9575318v-17.2677619c-3.0972198-.1880463-5.3369446-.9564946-6.7191745-2.3053449-1.3822298-1.3488503-2.1074935-3.2729178-2.175791-5.7722026v-6.1709591c.0855289-2.4623748 1.0451233-3.6935622 2.8787833-3.6935622s2.7279209 1.2311874 2.6827826 3.6935622c-.1099941 3.0804096.0903155 5.2722796.6009288 6.57561s1.4214369 1.8242464 2.7324708 1.5627482v-15.2229139c-.1945251-2.5947468.7237574-3.8921202 2.7548473-3.8921202s2.9964293 1.2973734 2.8960183 3.8921202v38.6008242c.1537792 2.1995189-.8115602 3.2992783-2.8960183 3.2992783-2.0844582 0-3.0027406-1.0997594-2.7548473-3.2992783z" fill="#faf2da" transform="matrix(.30901699 .95105652 .95105652 -.30901699 -26.539946 36.529101)"/><path d="m42.1551994 42.4929445v-17.267762c-3.0972198-.1880463-5.3369446-.9564946-6.7191745-2.3053448-1.3822298-1.3488503-2.1074935-3.2729179-2.175791-5.7722027v-6.170959c.0855289-2.46237488 1.0451233-3.6935623 2.8787833-3.6935623s2.7279209 1.23118742 2.6827826 3.6935623c-.1099941 3.0804096.0903155 5.2722796.6009288 6.5756099.5106133 1.3033304 1.4214369 1.8242465 2.7324708 1.5627482v-15.22291382c-.194525-2.59474685.7237574-3.89212028 2.7548473-3.89212028s2.9964293 1.29737343 2.8960183 3.89212028v38.60082422c.1537792 2.1995188-.8115602 3.2992782-2.8960183 3.2992782-2.0844582 0-3.0027406-1.0997594-2.7548473-3.2992782z" fill="#066727"/></g><g transform="translate(275.584795 154.902808)"><path d="m25.5545328 74.235498v-11.2658675c-3.6760865-.0630686-6.5410655-.8258802-8.5949371-2.2884346-2.0538715-1.4625544-3.2840023-4.1359874-3.6903924-8.0202989v-4.9441426c.257372-2.2553885 1.2276643-3.3830827 2.910877-3.3830827 1.6832128 0 2.6056796 1.1276942 2.7674006 3.3830827v4.9441426c.143651 1.651253.7803221 2.8582604 1.9100134 3.6210223 1.1296913.7627618 2.6953708 1.0427704 4.6970385.8400257v-23.4650825c.0484718-2.4534655 1.0220885-3.6801983 2.9208502-3.6801983 1.8987618 0 2.9088818 1.2267328 3.03036 3.6801983v12.5528162c1.7939895.0941824 3.0518528-.3955995 3.7735899-1.4693457.7217371-1.0737463 1.0373395-2.9127302.9468072-5.5169516v-3.8250927c.2209109-2.1271859 1.1582811-3.1907788 2.8121105-3.1907788 1.6538295 0 2.6261788 1.0635929 2.917048 3.1907788v5.6039138c-.2311577 3.9222914-1.2323541 6.7573379-3.0035893 8.5051396-1.7712352 1.7478016-4.253224 2.7989866-7.4459663 3.1535549v21.5433784c-.1176316 2.1401681-1.1539002 3.2153804-3.108806 3.2256366-1.9549058.0102563-2.9023739-1.0545484-2.8424042-3.194414z" fill="#faf2da" transform="matrix(.43837115 .89879405 .89879405 -.43837115 -32.760392 52.427586)"/><path d="m44.5952711 44.3786085v-11.2658674c-3.6760866-.0630687-6.5410656-.8258802-8.5949372-2.2884346-2.0538715-1.4625544-3.2840023-4.1359874-3.6903924-8.020299v-4.9441426c.257372-2.2553884 1.2276643-3.3830826 2.9108771-3.3830826 1.6832127 0 2.6056795 1.1276942 2.7674005 3.3830826v4.9441426c.143651 1.651253.7803221 2.8582605 1.9100134 3.6210223s2.6953708 1.0427704 4.6970386.8400257v-23.46508247c.0484717-2.45346554 1.0220884-3.68019831 2.9208502-3.68019831 1.8987617 0 2.9088817 1.22673277 3.0303599 3.68019831v12.55281627c1.7939895.0941824 3.0518529-.3955996 3.7735899-1.4693458.7217371-1.0737462 1.0373395-2.9127301.9468072-5.5169516v-3.82509266c.2209109-2.12718586 1.1582811-3.1907788 2.8121105-3.1907788 1.6538295 0 2.6261788 1.06359294 2.917048 3.1907788v5.60391386c-.2311577 3.9222913-1.2323541 6.7573379-3.0035893 8.5051395s-4.2532239 2.7989866-7.4459663 3.1535549v21.5433784c-.1176315 2.1401682-1.1539002 3.2153804-3.108806 3.2256367-1.9549058.0102562-2.9023738-1.0545485-2.8424041-3.1944141z" fill="#066727"/></g><g transform="translate(692.763158 120.691145)"><path d="m39.7700915 144.52567v-22.898954c-4.7832743.410241-8.4702483-.391412-11.0609221-2.404959-2.5906738-2.013546-3.8935168-5.090124-3.9085289-9.229732v-7.538485c.2469675-2.043098 1.2981899-3.0646466 3.1536674-3.0646466s2.8378687 1.0215486 2.9471737 3.0646466v7.538485c.0545525 2.244703.8194264 3.843483 2.2946217 4.79634s3.6665247 1.263545 6.5739882.932064v-43.5346554c-.1028435-2.5117547.871664-3.7676321 2.9235223-3.7676321 2.0518584 0 3.0857812 1.2558774 3.1017685 3.7676321v28.9949464c2.2424307.130878 3.9046292-.29077 4.9865957-1.2649452 1.0819664-.9741748 1.6369871-2.5488536 1.6650619-4.7240365v-6.3891538c.2405249-2.2619155 1.2412801-3.3928733 3.0022656-3.3928733 1.7609856 0 2.7556561 1.1309578 2.9840115 3.3928733v6.3891538c.0460124 4.05249-.9486581 7.1069947-2.9840115 9.1635137-2.0353533 2.05652-5.2533277 3.258468-9.6539232 3.605846v36.564572c.1453171 2.462598-.8276394 3.693897-2.9188694 3.693897s-3.1267038-1.231299-3.1064214-3.693897z" fill="#faf2da" transform="matrix(.78801075 -.61566148 -.61566148 -.78801075 75.510259 219.297716)"/><path d="m15.7639846 76.1726635v-22.8989534c-4.7832742.4102407-8.47024827-.3914123-11.06092205-2.4049591-2.59067379-2.0135468-3.89351676-5.0901242-3.90852892-9.2297322v-7.5384856c.24696749-2.0430975 1.29818996-3.0646462 3.15366743-3.0646462 1.85547746 0 2.8378687 1.0215487 2.94717372 3.0646462v7.5384856c.05455248 2.2447029.81942637 3.8434827 2.29462169 4.7963396 1.47519533.9528568 3.66652473 1.263545 6.57398813.9320647v-43.53465586c-.1028434-2.51175472.871664-3.76763209 2.9235224-3.76763209s3.0857812 1.25587737 3.1017684 3.76763209v28.99494636c2.2424307.130878 3.9046293-.2907703 4.9865957-1.2649451 1.0819665-.9741748 1.6369871-2.5488536 1.665062-4.7240365v-6.3891538c.2405248-2.2619156 1.24128-3.3928733 3.0022656-3.3928733 1.7609855 0 2.755656 1.1309577 2.9840115 3.3928733v6.3891538c.0460123 4.05249-.9486582 7.1069947-2.9840115 9.1635141-2.0353533 2.0565193-5.2533278 3.2584677-9.6539233 3.6058451v36.5645723c.1453171 2.4625982-.8276393 3.6938973-2.9188693 3.6938973s-3.1267038-1.2312991-3.1064215-3.6938973z" fill="#066727"/></g><g transform="translate(672.807018 202.419006)"><path d="m34.3947077 8.84314319c4.9931117 6.12836051 5.8248441 12.15405321 2.4951971 18.07707811-4.9944705 8.8845374-23.5592076 4.1308683-25.7532055 1.4938162-1.46266532-1.7580347-3.18244445-5.9379722-5.15933742-12.5398123l8.18808722 3.8174296 7.1205287.7645661 5.8292224-1.8738311 5.3078988-4.0203494z" fill="#faf2da"/><path d="m11.6457862.22277775c9.4188789-1.4780599 18.1240518 4.70094067 17.5395052 9.60872095-.5845466 4.9077803-5.3723251 11.1946393-17.5395052 9.9704683-12.16718017-1.2241709-11.53203499-6.8301763-10.34474404-9.82356527 1.18729095-2.99338896.92586502-8.27756408 10.34474404-9.75562398z" fill="#f0cf92"/><path d="m16.2308794.2349845c9.4206968-1.47834516 18.1275497 4.70184793 17.5428903 9.61057538-.5846595 4.90872742-5.373362 11.19679982-17.5428903 9.97239262-12.16952833-1.2244072-11.53426058-6.8314946-10.34674049-9.82546124 1.1875201-2.99396667.92604371-8.2791616 10.34674049-9.75750676z" stroke="#000" stroke-width="3.8"/></g><g transform="translate(480.847953 230.928726)"><path d="m79.0198782 87.6248675c65.6342558-2.0997495 90.4702418 2.0163885 92.1185298 10.2974228 1.648288 8.2810337-23.6501 21.7461687-88.6631019 22.9085017-65.0130023 1.162334-81.18289482-3.792131-82.22251148-13.350317-1.03961667-9.5581847 13.13282778-17.7558581 78.76708358-19.8556075z" fill="#faf2da"/><g stroke="#5e3803" stroke-linecap="round" stroke-width="5.7"><path d="m87.6988179 51.3108712c-8.4528508-10.5163711-10.899475-21.0936233-7.3398725-31.7317564 3.5596025-10.63813315 11.684899-17.03200987 24.3758896-19.18163016"/><path d="m104.319943 62.5897417c-8.4528513-10.5163712-10.8994755-21.0936234-7.339873-31.7317565 3.559602-10.6381331 11.684899-17.0320099 24.375889-19.1816302" transform="matrix(.66913061 .74314483 -.74314483 .66913061 63.453836 -68.253553)"/><path d="m108.098124 79.742406c-8.4528507-10.5163711-10.8994749-21.0936233-7.339872-31.7317564 3.559602-10.6381332 11.684899-17.0320099 24.375889-19.1816302" transform="matrix(-.01745241 .9998477 -.9998477 -.01745241 168.389915 -56.904883)"/><path d="m97.6516608 99.2141082c-8.4528508-10.5163711-10.8994749-21.0936233-7.3398725-31.7317564 3.5596025-10.6381332 11.6848987-17.0320099 24.3758897-19.1816302" transform="matrix(-.79863551 .60181502 -.60181502 -.79863551 227.325076 71.452924)"/><path d="m78.1551712 102.921713c-8.4528508-10.516371-10.899475-21.0936232-7.3398725-31.7317563s11.684899-17.0320098 24.3758895-19.1816301" transform="matrix(-.9961947 -.08715574 .08715574 -.9961947 157.359919 161.800522)"/><path d="m62.232426 91.4403365c-8.4528508-10.5163711-10.899475-21.0936233-7.3398725-31.7317564 3.5596024-10.6381332 11.6848989-17.0320099 24.3758894-19.1816302" transform="matrix(-.69465837 -.7193398 .7193398 -.69465837 64.873219 159.504334)"/><path d="m59.8480284 70.6773816c-8.4528508-10.5163712-10.8994749-21.0936233-7.3398725-31.7317564 3.5596025-10.6381332 11.684899-17.0320099 24.3758895-19.1816302" transform="matrix(.0348995 -.99939083 .99939083 .0348995 16.481606 107.508579)"/><path d="m67.1027222 53.1844074c-8.4528509-10.5163711-10.899475-21.0936233-7.3398726-31.7317564 3.5596025-10.6381332 11.684899-17.03200988 24.3758895-19.18163017" transform="matrix(.75470958 -.65605903 .65605903 .75470958 -.736226 53.486301)"/></g></g><path d="m0 185.313175h195.760234v254.686825h-195.760234z" fill="url(#c)"/><path d="m779.239766 185.313175h195.760234v254.686825h-195.760234z" fill="url(#d)"/></g></svg>