<svg viewBox="0 0 500 500" width="500" height="500" xmlns="http://www.w3.org/2000/svg" xmlns:xlink="http://www.w3.org/1999/xlink"><defs><path id="a" d="m184.282897.57142882c.55538 42.63148888-5.525527 69.82789188-18.242722 81.58920898-19.075792 17.6419756-95.581927 36.7063492-124.9635544 55.7130982-19.5877516 12.671166-33.14811437 31.404961-40.68108824 56.201384h467.74909464c-9.851358-32.94665-32.621905-55.787908-68.311641-68.523775-53.534603-19.1038-95.151759-34.0920486-106.578453-50.4086772-7.617795-10.8777525-11.426693-35.7348321-11.426693-74.57123898z"/><mask id="b" fill="#fff"><use fill="#fff" fill-rule="evenodd" xlink:href="#a"/></mask></defs><g fill="none" fill-rule="evenodd"><path d="m0 0h500v500h-500z" fill="#f8f8f8"/><g transform="translate(16 60)"><path d="m99.9393995 360c-2.585866-61.821644-2.585866-107.096777 0-135.825401 3.8787995-43.092935 11.6489215-175.8126807 79.8155995-213.5765524 6.999032-3.87741562 17.277537-5.46223788 30.835517-4.75446681 57.233042-17.22620479 98.438101 3.63325138 123.615178 62.57836851 25.177076 58.9451167 36.286283 156.1378007 33.327621 291.5780517z" fill="#393939"/><g transform="translate(0 245)"><use fill="#e8e8e8" xlink:href="#a"/><path d="m140.525953 95.6987634c40.68026 53.6914616 71.577802 80.3774006 92.692626 80.0578156 18.518871.242439 50.55439-25.843088 96.106558-78.256579h138.424796v96.427157h-468.12611174v-98.2283936z" fill="#393939" mask="url(#b)"/><path d="m185.806011 10.2631579c2.527037 27.8179872 15.754167 48.2669986 39.68139 61.3470341 23.927223 13.0800356 57.608158 18.2737477 101.042805 15.5811364l-2.32544-76.9281705z" fill="#ccc" mask="url(#b)"/></g><path d="m203.263604 58c13.423577 12.4975861 23.720992 20.7490303 30.892245 24.7543327 22.2029 12.4008074 44.225644 17.6894093 55.891929 27.5095013 17.318377 14.577737 26.707496 28.464709 28.167359 41.660915 2.812808-6.396485 5.999127-9.594727 9.55896-9.594727 2.779381 0 7.782936 15.656474 5.754273 31.776054-1.868804 14.849362-10.561635 30.266202-13.155897 30.266202-3.606957 0-6.393719-2.275135-8.360284-6.825405-7.403485 21.522407-13.61082 35.94408-18.622004 43.265021-19.728601 28.821912-42.219458 39.188106-57.816694 39.188106-13.144925 0-37.266935-9.842202-53.571423-29.356813-6.941902-8.308665-14.866672-24.723107-23.774309-49.243327-1.875309 3.236685-4.10756 4.855027-6.696755 4.855027-2.107806 0-9.242189-11.208165-12.580748-28.094765-2.812986-14.228227-2.908729-34.574024 1.881159-35.8301 3.984296-1.044821 8.45143.299266 13.401402 4.032261 1.171894-18.640276 5.874494-35.379363 14.107801-50.2172617 8.233308-14.8378984 19.874303-27.5529055 34.922986-38.1450213z" fill="#e8e8e8"/></g></g></svg>