<?xml version="1.0" encoding="UTF-8"?>
<svg width="32" height="32" viewBox="0 0 32 32" fill="none" xmlns="http://www.w3.org/2000/svg">
    <path d="M30 0H2C0.89543 0 0 0.89543 0 2V30C0 31.1046 0.89543 32 2 32H30C31.1046 32 32 31.1046 32 30V2C32 0.89543 31.1046 0 30 0Z" fill="#1B77E5"/>
    <path d="M25 16C25 11.03 20.97 7 16 7C11.03 7 7 11.03 7 16C7 20.492 10.291 24.215 14.594 24.89V18.602H12.309V16H14.594V14.017C14.594 11.762 15.937 10.516 17.994 10.516C18.978 10.516 20.008 10.691 20.008 10.691V12.906H18.873C17.755 12.906 17.406 13.6 17.406 14.312V16H19.902L19.503 18.602H17.406V24.891C21.71 24.215 25 20.492 25 16Z" fill="white"/>
    <path d="M25 16C25 11.03 20.97 7 16 7C11.03 7 7 11.03 7 16C7 20.492 10.291 24.215 14.594 24.89V18.602H12.309V16H14.594V14.017C14.594 11.762 15.937 10.516 17.994 10.516C18.978 10.516 20.008 10.691 20.008 10.691V12.906H18.873C17.755 12.906 17.406 13.6 17.406 14.312V16H19.902L19.503 18.602H17.406V24.891C21.71 24.215 25 20.492 25 16Z" fill="white"/>
</svg>
