<svg width="32" height="32" viewBox="0 0 32 32" fill="none" xmlns="http://www.w3.org/2000/svg">
    <defs>
        <radialGradient id="radialGradient" cx="0" cy="0" r="1" gradientUnits="userSpaceOnUse"
                        gradientTransform="translate(6.15904 31.8288) scale(34.8672)"
                        style="width:0;height:0;position:absolute;" aria-hidden="true" focusable="false">
            <stop stop-color="#0099FF"/>
            <stop offset="0.60975" stop-color="#A033FF"/>
            <stop offset="0.93482" stop-color="#FF5280"/>
            <stop offset="1" stop-color="#FF7061"/>
        </radialGradient>
    </defs>
    <path id="bg"
        d="M30 0H2C0.89543 0 0 0.89543 0 2V30C0 31.1046 0.89543 32 2 32H30C31.1046 32 32 31.1046 32 30V2C32 0.89543 31.1046 0 30 0Z"
        fill="url(#radialGradient)"/>
    <path
        d="M16.894 18.222L14.602 15.778L10.13 18.222L15.05 13L17.398 15.444L21.814 13L16.894 18.222V18.222ZM16 7C11.03 7 7 10.73 7 15.333C7 17.956 8.309 20.295 10.354 21.823V25L13.418 23.318C14.236 23.544 15.103 23.667 16 23.667C20.97 23.667 25 19.936 25 15.333C25 10.731 20.97 7 16 7Z"
        fill="white"/>
    <path
        d="M16.894 18.222L14.602 15.778L10.13 18.222L15.05 13L17.398 15.444L21.814 13L16.894 18.222V18.222ZM16 7C11.03 7 7 10.73 7 15.333C7 17.956 8.309 20.295 10.354 21.823V25L13.418 23.318C14.236 23.544 15.103 23.667 16 23.667C20.97 23.667 25 19.936 25 15.333C25 10.731 20.97 7 16 7Z"
        fill="white"/>

</svg>
