<svg viewBox="0 0 500 500" width="500" height="500" xmlns="http://www.w3.org/2000/svg" xmlns:xlink="http://www.w3.org/1999/xlink"><defs><path id="a" d="m187.033388.58022003c.563669 43.28735797-5.607998 70.90216717-18.515002 82.84442757-19.360505 17.9133904-97.0085223 37.2710614-126.8286815 56.5702224-19.8801061 12.866108-33.64286235 31.888115-41.28826867 57.066021h474.73042417c-9.998393-33.453521-33.108799-56.646184-69.331217-69.577987-54.333628-19.397704-96.571935-34.6165415-108.169176-51.1841952-7.731494-11.0451025-11.597241-36.2845987-11.597241-75.71848877z"/><mask id="b" fill="#fff"><use fill="#fff" fill-rule="evenodd" xlink:href="#a"/></mask></defs><g fill="none" fill-rule="evenodd"><path d="m0 0h500v500h-500z" fill="#f8f8f8"/><g transform="translate(10 78)"><g transform="translate(0 224)"><use fill="#e8e8e8" xlink:href="#a"/><path d="m143.005149 97.6973684c25.101433 31.7657146 56.893648 47.3572096 95.376644 46.7744836 38.459704.503721 70.53985-14.478124 96.240438-44.9455356h140.490837v97.6346536h-474.78768555l-.32538245-99.4636016z" fill="#393939" mask="url(#b)"/><path d="m188.579235 10.4210526c2.564754 28.2459563 15.989304 49.0095678 40.273649 62.2908347 24.284346 13.2812669 58.467982 18.5548822 102.550908 15.8208461l-2.360149-78.1116808z" fill="#ccc" mask="url(#b)"/></g><path d="m236.906654 0c39.357941 0 67.287802 22.6957709 78.016447 43.8438036 8.410754 16.5790664 12.537568 45.1395581 12.380441 85.6814754 2.853389-6.493511 6.08568-9.740266 9.696871-9.740266 7.922812 0 7.895224 15.893962 5.837293 32.258054-1.895766 15.074607-7.443258 30.725301-13.345703 30.725301-3.658997 0-6.485964-2.309646-8.480901-6.928938-4.049828 21.848873-8.616483 36.489305-13.699966 43.921294-20.013234 29.259102-34.089821 47.239276-70.404482 47.239276-36.31466 0-46.813786-17.448233-63.353506-37.258855-7.042056-8.434697-13.350925-25.098124-18.926605-49.990283-1.263603 3.285781-3.52806 4.928671-6.793372 4.928671-4.897968 0-9.375531-11.378178-12.762256-28.520925-2.853571-14.444051-5.939816-34.592678 1.908299-36.373595 4.063855-.922182 8.595438.442293 13.59475 4.093424-1.965557-38.2934524 1.227711-64.9716637 9.579804-80.0346334 12.528139-22.5944545 37.394946-43.8438036 76.752886-43.8438036z" fill="#e8e8e8"/></g></g></svg>
