<svg width="32" height="32" viewBox="0 0 32 32" fill="none" xmlns="http://www.w3.org/2000/svg">
<path d="M29.333 0H2.667C1.19406 0 0 1.19406 0 2.667V29.333C0 30.8059 1.19406 32 2.667 32H29.333C30.8059 32 32 30.8059 32 29.333V2.667C32 1.19406 30.8059 0 29.333 0Z" fill="#E7A90F"/>
<path d="M23.375 14.697C23.824 14.697 24.194 15.033 24.245 15.465L24.25 15.565V21.645C24.2474 22.3116 23.9903 22.9521 23.5312 23.4354C23.072 23.9187 22.4456 24.2083 21.78 24.245L21.625 24.25H11.125C10.4581 24.2521 9.81551 23.9995 9.32857 23.5438C8.84163 23.088 8.54705 22.4636 8.505 21.798L8.5 21.645V15.565C8.5 15.086 8.892 14.697 9.375 14.697C9.824 14.697 10.194 15.033 10.245 15.465L10.25 15.565V21.645C10.2506 21.8585 10.3297 22.0643 10.4723 22.2233C10.6148 22.3822 10.8108 22.4832 11.023 22.507L11.125 22.513H21.625C21.8388 22.5138 22.0454 22.4362 22.2058 22.2949C22.3661 22.1535 22.469 21.9582 22.495 21.746L22.5 21.645V15.565C22.5 15.086 22.892 14.697 23.375 14.697ZM16.375 7.75L16.477 7.756L16.576 7.773L16.674 7.802L16.745 7.832L16.845 7.885L16.922 7.941L16.994 8.004L20.494 11.478C20.5752 11.5583 20.6396 11.654 20.6835 11.7594C20.7275 11.8647 20.7501 11.9778 20.7501 12.092C20.7501 12.2062 20.7275 12.3193 20.6835 12.4246C20.6396 12.53 20.5752 12.6257 20.494 12.706C20.3427 12.8556 20.1423 12.9453 19.93 12.9586C19.7176 12.9718 19.5077 12.9077 19.339 12.778L19.256 12.706L17.25 10.716V19.039C17.25 19.519 16.858 19.908 16.375 19.908C16.1612 19.9088 15.9546 19.8312 15.7942 19.6899C15.6339 19.5485 15.531 19.3532 15.505 19.141L15.5 19.039V10.715L13.494 12.706C13.3292 12.8691 13.1068 12.9605 12.875 12.9605C12.6432 12.9605 12.4208 12.8691 12.256 12.706C12.1056 12.5571 12.015 12.3581 12.0016 12.1469C11.9881 11.9356 12.0527 11.7268 12.183 11.56L12.256 11.478L15.756 8.004L15.806 7.958L15.889 7.896L15.951 7.858L16.051 7.812L16.174 7.772L16.274 7.756L16.375 7.75Z" fill="white"/>
</svg>
