<svg width="32" height="32" viewBox="0 0 32 32" xmlns="http://www.w3.org/2000/svg">
<path d="M30 0H2C0.89543 0 0 0.89543 0 2V30C0 31.1046 0.89543 32 2 32H30C31.1046 32 32 31.1046 32 30V2C32 0.89543 31.1046 0 30 0Z" fill="#1DA1F1"/>
<path d="M18.266 9.842C18.656 9.542 19.108 9.309 19.598 9.25C19.53 9.55 19.252 9.706 19.01 9.842C19.376 9.732 19.732 9.569 20.118 9.542C20.221 9.538 20.368 9.542 20.404 9.665C20.459 9.817 20.309 9.935 20.194 9.998C19.774 10.22 19.287 10.253 18.859 10.458C19.739 10.373 20.617 10.722 21.284 11.297C22.08 11.966 22.606 12.935 22.798 13.966C23.502 14.159 24.263 14.019 24.923 13.732C24.591 14.501 23.746 14.852 22.973 14.92C23.615 15.167 24.321 15.21 25 15.136C24.462 15.745 23.63 15.982 22.847 15.963C22.522 17.321 21.748 18.539 20.744 19.478C18.791 21.285 16.085 22.151 13.471 21.978C10.958 21.822 8.485 20.557 7 18.458C7.13 18.535 7.239 18.642 7.363 18.728C8.513 19.578 10.043 19.848 11.409 19.468C12.239 19.249 12.991 18.776 13.592 18.157C13.208 18.183 12.781 18.113 12.502 17.817C12.328 17.648 12.256 17.37 12.361 17.143C12.487 16.857 12.768 16.694 13.034 16.566C12.162 16.693 11.212 16.278 10.81 15.455C11.104 15.096 11.575 14.981 12.013 14.945C11.503 14.795 10.981 14.609 10.595 14.221C10.288 13.927 10.089 13.519 10.029 13.095C10.389 13.026 10.751 12.943 11.12 12.959C10.283 12.513 9.518 11.666 9.584 10.641C11.172 11.232 12.734 11.907 14.227 12.721C14.749 13.015 15.183 13.439 15.61 13.857C16.023 12.76 16.467 11.66 17.139 10.697C17.499 10.192 17.925 9.721 18.447 9.387C18.427 9.553 18.343 9.698 18.267 9.842H18.266Z" fill="white"/>


<path d="M18.266 9.842C18.656 9.542 19.108 9.309 19.598 9.25C19.53 9.55 19.252 9.706 19.01 9.842C19.376 9.732 19.732 9.569 20.118 9.542C20.221 9.538 20.368 9.542 20.404 9.665C20.459 9.817 20.309 9.935 20.194 9.998C19.774 10.22 19.287 10.253 18.859 10.458C19.739 10.373 20.617 10.722 21.284 11.297C22.08 11.966 22.606 12.935 22.798 13.966C23.502 14.159 24.263 14.019 24.923 13.732C24.591 14.501 23.746 14.852 22.973 14.92C23.615 15.167 24.321 15.21 25 15.136C24.462 15.745 23.63 15.982 22.847 15.963C22.522 17.321 21.748 18.539 20.744 19.478C18.791 21.285 16.085 22.151 13.471 21.978C10.958 21.822 8.485 20.557 7 18.458C7.13 18.535 7.239 18.642 7.363 18.728C8.513 19.578 10.043 19.848 11.409 19.468C12.239 19.249 12.991 18.776 13.592 18.157C13.208 18.183 12.781 18.113 12.502 17.817C12.328 17.648 12.256 17.37 12.361 17.143C12.487 16.857 12.768 16.694 13.034 16.566C12.162 16.693 11.212 16.278 10.81 15.455C11.104 15.096 11.575 14.981 12.013 14.945C11.503 14.795 10.981 14.609 10.595 14.221C10.288 13.927 10.089 13.519 10.029 13.095C10.389 13.026 10.751 12.943 11.12 12.959C10.283 12.513 9.518 11.666 9.584 10.641C11.172 11.232 12.734 11.907 14.227 12.721C14.749 13.015 15.183 13.439 15.61 13.857C16.023 12.76 16.467 11.66 17.139 10.697C17.499 10.192 17.925 9.721 18.447 9.387C18.427 9.553 18.343 9.698 18.267 9.842H18.266Z" fill="white"/>

</svg>
