<svg width="32" height="32" viewBox="0 0 32 32" fill="none" xmlns="http://www.w3.org/2000/svg">
<path d="M30 0H2C0.89543 0 0 0.89543 0 2V30C0 31.1046 0.89543 32 2 32H30C31.1046 32 32 31.1046 32 30V2C32 0.89543 31.1046 0 30 0Z" fill="#FF6720"/>

<path d="M12.586 8.173C9.808 8.173 7.513 10.476 7.513 13.254V18.283C7.513 21.061 9.808 23.355 12.586 23.355H20.023C22.801 23.355 25.096 21.061 25.096 18.283V13.254C25.096 10.476 22.801 8.173 20.023 8.173H12.586V8.173ZM12.586 10.133H20.023C21.755 10.133 23.144 11.523 23.144 13.254V18.283C23.144 20.014 21.755 21.403 20.024 21.403H12.585C10.853 21.403 9.464 20.014 9.464 18.283V13.254C9.464 11.522 10.853 10.134 12.584 10.134L12.586 10.133ZM18.88 10.819L16.885 11.847L19.285 16.498L18.221 17.043L15.821 12.393L13.834 13.43L16.234 18.08L15.179 18.625L12.77 13.966L10.775 15.004L13.175 19.663L13.729 20.718L19.839 17.562L21.834 16.533L21.289 15.461L18.88 10.819V10.819Z" fill="white"/>
    
<path d="M12.586 8.173C9.808 8.173 7.513 10.476 7.513 13.254V18.283C7.513 21.061 9.808 23.355 12.586 23.355H20.023C22.801 23.355 25.096 21.061 25.096 18.283V13.254C25.096 10.476 22.801 8.173 20.023 8.173H12.586V8.173ZM12.586 10.133H20.023C21.755 10.133 23.144 11.523 23.144 13.254V18.283C23.144 20.014 21.755 21.403 20.024 21.403H12.585C10.853 21.403 9.464 20.014 9.464 18.283V13.254C9.464 11.522 10.853 10.134 12.584 10.134L12.586 10.133ZM18.88 10.819L16.885 11.847L19.285 16.498L18.221 17.043L15.821 12.393L13.834 13.43L16.234 18.08L15.179 18.625L12.77 13.966L10.775 15.004L13.175 19.663L13.729 20.718L19.839 17.562L21.834 16.533L21.289 15.461L18.88 10.819V10.819Z" fill="white"/>


</svg>
